Coordinates
version=1
nRows=19
nColumns=34
inDegrees=yes

Units are S.I. units (second, meters, Newtons, ...)
Angles are in degrees.

endheader
time	pelvis_tilt	pelvis_list	pelvis_rotation	pelvis_tx	pelvis_ty	pelvis_tz	hip_flexion_r	hip_adduction_r	hip_rotation_r	knee_angle_r	ankle_angle_r	subtalar_angle_r	mtp_angle_r	hip_flexion_l	hip_adduction_l	hip_rotation_l	knee_angle_l	socket_flexion	socket_adduction	socket_rotation	socket_tx	socket_ty	socket_tz	pros_ankle_rx	pros_ankle_ry	pros_ankle_rz	pros_ankle_tx	pros_ankle_ty	pros_ankle_tz	foot_flex	lumbar_extension	lumbar_bending	lumbar_rotation
      0.00000000	     -7.50535656	    -10.18684523	     -8.81820951	     -0.80299850	      1.03514802	      0.36553363	     -5.73055300	     10.07340591	     -3.56923613	    -12.04275076	      6.33512083	     26.28811967	     29.62940891	     26.87283763	    -11.53083622	      5.27016468	      0.02227839	      0.82970249	     -2.97398423	     -6.58169198	     -0.01926932	     -0.00473588	      0.00471051	      0.00000000	      0.00000000	      0.00000000	      0.00000000	      0.00000000	      0.00000000	     -1.14531858	    -12.61242715	      8.57864203	     15.49206094
      0.00416667	     -7.52351022	    -10.20321411	     -8.91231775	     -0.79812525	      1.03427754	      0.36550231	     -5.93938054	     10.00351984	     -3.52611814	    -12.15142914	      6.33766345	     26.31199927	     29.63905372	     26.93171769	    -11.52497433	      5.30454828	     -0.09861876	      0.94672017	     -2.98052988	     -6.63665803	     -0.01896831	     -0.00502205	      0.00482611	      0.00000000	      0.00000000	      0.00000000	      0.00000000	      0.00000000	      0.00000000	     -1.43090592	    -12.56317062	      8.54947869	     15.49007648
      0.00833333	     -7.54231970	    -10.22368558	     -8.98712268	     -0.79309781	      1.03336135	      0.36544278	     -6.14873414	      9.94935785	     -3.45017084	    -12.27738263	      6.35412870	     26.36638071	     29.66083817	     27.00826296	    -11.50431408	      5.35133047	     -0.23141748	      1.07615011	     -2.97393177	     -6.69431127	     -0.01861150	     -0.00539722	      0.00503032	      0.00000000	      0.00000000	      0.00000000	      0.00000000	      0.00000000	      0.00000000	     -1.84384723	    -12.52874996	      8.49913870	     15.49625238
      0.01250000	     -7.60935680	    -10.25647909	     -9.06433681	     -0.78789639	      1.03234311	      0.36536894	     -6.31656968	      9.91360713	     -3.35376143	    -12.40906710	      6.43764837	     26.50816914	     29.73656985	     27.12099997	    -11.48965045	      5.43465288	     -0.36462696	      1.20431513	     -2.97165749	     -6.73208310	     -0.01835972	     -0.00585003	      0.00540919	      0.00000000	      0.00000000	      0.00000000	      0.00000000	      0.00000000	      0.00000000	     -2.31723799	    -12.56237544	      8.41556014	     15.53528870
      0.01666667	     -7.62706372	    -10.27742972	     -9.14050178	     -0.78254175	      1.03133516	      0.36527171	     -6.51760709	      9.84208273	     -3.29225667	    -12.58706770	      6.46828044	     26.59867019	     29.79378687	     27.20125191	    -11.48605907	      5.48077984	     -0.53540037	      1.37062345	     -2.96662150	     -6.79475906	     -0.01794840	     -0.00639309	      0.00534343	      0.00000000	      0.00000000	      0.00000000	      0.00000000	      0.00000000	      0.00000000	     -2.69528620	    -12.51838967	      8.36660588	     15.56126335
      0.02083333	     -7.79364542	    -10.16562625	     -9.18204435	     -0.77691554	      1.02988191	      0.36498728	     -6.32268361	      9.52461676	     -4.02311745	    -13.19287374	      6.67954679	     27.93283139	     31.24090866	     27.48411653	    -11.26619893	      5.55059436	     -0.75725632	      1.54085204	     -3.04886313	     -6.81743701	     -0.01736507	     -0.00692537	      0.00602754	      0.00000000	      0.00000000	      0.00000000	      0.00000000	      0.00000000	      0.00000000	     -3.10175915	    -12.31087094	      8.20123939	     15.65517663
      0.02500000	     -7.80609972	    -10.16855584	     -9.27231068	     -0.77127076	      1.02889028	      0.36494499	     -6.55294882	      9.42794760	     -3.96286210	    -13.33625142	      6.66998773	     27.94891859	     31.26051687	     27.52105356	    -11.26476253	      5.60583972	     -0.94874102	      1.72821581	     -3.04682145	     -6.85965385	     -0.01709779	     -0.00756516	      0.00594270	      0.00000000	      0.00000000	      0.00000000	      0.00000000	      0.00000000	      0.00000000	     -3.39261700	    -12.25556107	      8.15619635	     15.64493398
      0.02916667	     -7.82915299	    -10.18498222	     -9.31764131	     -0.76566876	      1.02787926	      0.36481952	     -6.74968274	      9.36898105	     -3.85943105	    -13.52063997	      6.67682469	     28.01019870	     31.32789839	     27.60962479	    -11.24734561	      5.66830373	     -1.15485524	      1.92861838	     -3.02699147	     -6.89819699	     -0.01665215	     -0.00829644	      0.00589636	      0.00000000	      0.00000000	      0.00000000	      0.00000000	      0.00000000	      0.00000000	     -3.88872829	    -12.27316212	      8.03070014	     15.63813382
      0.03333333	     -7.84549475	    -10.18779597	     -9.38474496	     -0.75998027	      1.02688891	      0.36475540	     -6.94359065	      9.28386569	     -3.78035584	    -13.71906925	      6.67606609	     28.06701610	     31.40168996	     27.67902800	    -11.23787479	      5.71920486	     -1.38623877	      2.15414256	     -3.00472333	     -6.93301547	     -0.01619204	     -0.00907564	      0.00577598	      0.00000000	      0.00000000	      0.00000000	      0.00000000	      0.00000000	      0.00000000	     -4.24968731	    -12.25738394	      7.93665830	     15.64049539
      0.03750000	     -7.88344108	    -10.18777494	     -9.45342819	     -0.75426346	      1.02584343	      0.36463957	     -7.09561242	      9.19143778	     -3.72081930	    -13.95413773	      6.68530475	     28.15167629	     31.53036945	     27.77862147	    -11.23569035	      5.76965935	     -1.63633468	      2.39405950	     -2.98607168	     -6.93868484	     -0.01562359	     -0.00996871	      0.00556734	      0.00000000	      0.00000000	      0.00000000	      0.00000000	      0.00000000	      0.00000000	     -4.62172020	    -12.27676437	      7.80732324	     15.65390648
      0.04166667	     -8.02254621	    -10.08865402	     -9.53053466	     -0.74846704	      1.02450770	      0.36446510	     -6.93181466	      8.91305602	     -4.16144567	    -14.56232546	      6.84135004	     28.93989272	     33.14732251	     28.21007245	    -10.99139060	      5.41458326	     -2.06702150	      2.71529468	     -3.13967330	     -6.55912575	     -0.01333241	     -0.01070142	      0.00695536	      0.00000000	      0.00000000	      0.00000000	      0.00000000	      0.00000000	      0.00000000	     -4.91826000	    -12.08647603	      7.60044910	     15.79355007
      0.04583333	     -8.03053623	    -10.03985888	     -9.56621175	     -0.74254887	      1.02360494	      0.36438536	     -7.13679798	      8.78258073	     -4.06946700	    -14.74242784	      6.77753227	     28.95304113	     33.17630229	     28.21286628	    -10.97212667	      5.48231925	     -2.31348227	      2.96168050	     -3.09171506	     -6.57752107	     -0.01315132	     -0.01162741	      0.00630550	      0.00000000	      0.00000000	      0.00000000	      0.00000000	      0.00000000	      0.00000000	     -5.13056369	    -12.01883686	      7.55275060	     15.77305062
      0.05000000	     -8.04477630	    -10.01509527	     -9.59482732	     -0.73686478	      1.02268697	      0.36425921	     -7.25025192	      8.67764474	     -4.00573169	    -15.04970414	      6.63590704	     28.96469276	     33.32797710	     28.31776373	    -10.93596885	      5.52224498	     -2.61503768	      3.25214611	     -3.03943521	     -6.60435612	     -0.01231207	     -0.01260756	      0.00605763	      0.00000000	      0.00000000	      0.00000000	      0.00000000	      0.00000000	      0.00000000	     -5.46684375	    -12.08375043	      7.30390097	     15.70444303
      0.05416667	     -8.05841619	     -9.97683256	     -9.63024254	     -0.73087712	      1.02184206	      0.36410214	     -7.43227489	      8.54903465	     -3.92975596	    -15.24464364	      6.58466244	     28.96712510	     33.36342152	     28.30607743	    -10.92930758	      5.57750571	     -2.88028114	      3.51390812	     -3.01932256	     -6.61851899	     -0.01213990	     -0.01366448	      0.00529171	      0.00000000	      0.00000000	      0.00000000	      0.00000000	      0.00000000	      0.00000000	     -5.59858966	    -12.00825776	      7.25734453	     15.69092221
      0.05833333	     -8.01443457	     -9.93956665	     -9.61735588	     -0.72510655	      1.02105411	      0.36399572	     -7.60104010	      8.44497205	     -3.82378668	    -15.56839481	      6.48256532	     28.96164680	     33.42873517	     28.35162171	    -10.89955183	      5.60556339	     -3.20461025	      3.83228631	     -2.94601988	     -6.66607439	     -0.01116300	     -0.01473024	      0.00461367	      0.00000000	      0.00000000	      0.00000000	      0.00000000	      0.00000000	      0.00000000	     -5.79603474	    -11.94618227	      7.11482073	     15.66286485
      0.06250000	     -8.05809330	     -9.87751573	     -9.65287726	     -0.71959161	      1.02019240	      0.36392869	     -7.53620026	      8.30334227	     -3.83384088	    -16.10820722	      6.28263307	     28.86726889	     33.70387974	     28.57158208	    -10.85841800	      5.57622438	     -3.59024470	      4.19208954	     -2.90276606	     -6.63279553	     -0.00959947	     -0.01557332	      0.00413272	      0.00000000	      0.00000000	      0.00000000	      0.00000000	      0.00000000	      0.00000000	     -5.95955006	    -12.12265223	      6.72889706	     15.58047400
      0.06666667	     -8.03708452	     -9.80586383	     -9.63025418	     -0.71363730	      1.01952628	      0.36375506	     -7.68913594	      8.16772317	     -3.72864465	    -16.38983471	      6.20846814	     28.85469476	     33.77426265	     28.55997806	    -10.80692190	      5.61200292	     -3.88956873	      4.48621340	     -2.83854836	     -6.62672718	     -0.00901972	     -0.01658972	      0.00331813	      0.00000000	      0.00000000	      0.00000000	      0.00000000	      0.00000000	      0.00000000	     -6.03496596	    -12.01536879	      6.68504876	     15.56625498
      0.07083333	     -7.99045027	     -9.75064019	     -9.60033514	     -0.70784471	      1.01891460	      0.36360152	     -7.80306431	      8.05529285	     -3.63125931	    -16.77649461	      6.07402200	     28.81057564	     33.86316540	     28.58904250	    -10.76233355	      5.62832137	     -4.22893384	      4.81586403	     -2.76515687	     -6.63710762	     -0.00793833	     -0.01756118	      0.00256450	      0.00000000	      0.00000000	      0.00000000	      0.00000000	      0.00000000	      0.00000000	     -6.10471214	    -11.94915401	      6.53561496	     15.53079781
      0.07500000	     -7.95548377	     -9.68193784	     -9.56418992	     -0.70211625	      1.01833748	      0.36344548	     -7.84955836	      7.92940958	     -3.54631028	    -17.24524066	      5.88780165	     28.72235721	     33.97777462	     28.65333810	    -10.71535379	      5.63611284	     -4.58599350	      5.16076458	     -2.67681124	     -6.62805764	     -0.00662404	     -0.01843811	      0.00174674	      0.00000000	      0.00000000	      0.00000000	      0.00000000	      0.00000000	      0.00000000	     -6.13928230	    -11.94300296	      6.32097186	     15.47645886
